<svg xmlns="http://www.w3.org/2000/svg" width="1000" height="500">
      <g style="fill:none;stroke:#000000;stroke-width:10;stroke-linecap:round;stroke-linejoin:round;">
      <path d="M118,79 Q118,79, 117.5,79.5 Q117,80, 117,80.5 Q117,81, 117,82 Q117,83, 116.5,83.5 Q116,84, 115.5,85 Q115,86, 114.5,87 Q114,88, 113.5,89 Q113,90, 112.5,91.5 Q112,93, 111.5,94.5 Q111,96, 110.5,97.5 Q110,99, 109,101 Q108,103, 107.5,104.5 Q107,106, 106.5,107.5 Q106,109, 105.5,110.5 Q105,112, 104.5,113.5 Q104,115, 103.5,116.5 Q103,118, 102,119.5 Q101,121, 101,123 Q101,125, 100.5,126.5 Q100,128, 99.5,130.5 Q99,133, 99,135 Q99,137, 98.5,139 Q98,141, 98,144.5 Q98,148, 97.5,151 Q97,154, 96.5,156.5 Q96,159, 95.5,161.5 Q95,164, 95,165.5 Q95,167, 95,169 Q95,171, 95,172.5 Q95,174, 95,175 Q95,176, 95,177.5 Q95,179, 95.5,180 Q96,181, 96,182 Q96,183, 96.5,184 Q97,185, 97.5,186 Q98,187, 99,188 Q100,189, 101,190.5 Q102,192, 102.5,192.5 Q103,193, 103.5,193.5 Q104,194, 105,194.5 Q106,195, 107,195.5 Q108,196, 109,196.5 Q110,197, 111.5,197 Q113,197, 115,197 Q117,197, 139.5,193.5 Q162,190, 163,189.5 Q164,189, 165,188.5 Q166,188, 167,187.5 Q168,187, 169,186 Q170,185, 171,184 Q172,183, 173.5,181 Q175,179, 176.5,177.5 Q178,176, 179,173.5 Q180,171, 182,167.5 Q184,164, 185.5,161 Q187,158, 188.5,154.5 Q190,151, 192,147.5 Q194,144, 195,141 Q196,138, 197,135.5 Q198,133, 199.5,131 Q201,129, 201.5,127 Q202,125, 203,123 Q204,121, 204.5,119.5 Q205,118, 205.5,116.5 Q206,115, 206.5,113.5 Q207,112, 207.5,110.5 Q208,109, 208.5,108 Q209,107, 209.5,106 Q210,105, 210.5,104 Q211,103, 211.5,102 Q212,101, 212,100 Q212,99, 212.5,98 Q213,97, 213,96 Q213,95, 213.5,94.5 Q214,94, 214,93.5 Q214,93, 214,93 Q214,93, 214,92.5 Q214,92, 214,92.5 Q214,93, 213.5,94 Q213,95, 213,96 Q213,97, 212.5,98 Q212,99, 212,100 Q212,101, 212,102 Q212,103, 211.5,103.5 Q211,104, 211,104.5 Q211,105, 211,106 Q211,107, 211,108 Q211,109, 211,109.5 Q211,110, 210.5,111 Q210,112, 210,113 Q210,114, 210,115.5 Q210,117, 209.5,118 Q209,119, 208.5,120.5 Q208,122, 207,123.5 Q206,125, 205.5,127 Q205,129, 204.5,130.5 Q204,132, 203.5,134 Q203,136, 203,138 Q203,140, 202.5,141.5 Q202,143, 202,144.5 Q202,146, 202,147.5 Q202,149, 202,150.5 Q202,152, 202.5,153.5 Q203,155, 203,156.5 Q203,158, 203,159.5 Q203,161, 203.5,162.5 Q204,164, 204,166 Q204,168, 204,169.5 Q204,171, 204.5,172.5 Q205,174, 205.5,176 Q206,178, 206.5,180 Q207,182, 207.5,183.5 Q208,185, 209.5,187 Q211,189, 212,191 Q213,193, 214,194 Q215,195, 215.5,196 Q216,197, 216.5,197.5 Q217,198, 217.5,198.5 Q218,199, 218.5,199.5 Q219,200, 219.5,200 Q220,200, 220,200 Q220,200, 221,200 Q222,200, 223,199.5 Q224,199, 225.5,198 Q227,197, 229,196 Q231,195, 233,194 Q235,193, 238,191 Q241,189, 244,187.5 Q247,186, 249.5,184.5 Q252,183, 255,181 Q258,179, 260,177.5 Q262,176, 264,174.5 Q266,173, 268.5,171 Q271,169, 272.5,167 Q274,165, 276.5,162.5 Q279,160, 281.5,156.5 Q284,153, 286.5,149.5 Q289,146, 291,142.5 Q293,139, 294.5,135 Q296,131, 298.5,127 Q301,123, 302.5,119 Q304,115, 305.5,112 Q307,109, 309,105 Q311,101, 311.5,98.5 Q312,96, 312,94 Q312,92, 312,89.5 Q312,87, 312.5,85 Q313,83, 313,81.5 Q313,80, 313,79 Q313,78, 313,77.5 Q313,77, 313,76.5 Q313,76, 313,76 Q313,76, 313,76 Q313,76, 313,76 Q313,76, 313,76 Q313,76, 312.5,76.5 Q312,77, 312,77 Q312,77, 312,77 Q312,77, 312,77" />
<path d="M323,176 Q323,176, 323.5,176 Q324,176, 324,176 Q324,176, 324.5,176.5 Q325,177, 325.5,177 Q326,177, 326.5,177 Q327,177, 328,177 Q329,177, 330,177 Q331,177, 333,177 Q335,177, 336.5,176.5 Q338,176, 340.5,175.5 Q343,175, 345,175 Q347,175, 348.5,174.5 Q350,174, 351,174 Q352,174, 352.5,173.5 Q353,173, 354,172.5 Q355,172, 355.5,171.5 Q356,171, 356.5,170.5 Q357,170, 357.5,169 Q358,168, 358.5,167.5 Q359,167, 359.5,166 Q360,165, 360.5,164.5 Q361,164, 361,163 Q361,162, 361.5,161.5 Q362,161, 362,160.5 Q362,160, 362,159 Q362,158, 362,157.5 Q362,157, 361.5,156.5 Q361,156, 361,155.5 Q361,155, 360.5,154.5 Q360,154, 360,153.5 Q360,153, 359.5,152.5 Q359,152, 358.5,151.5 Q358,151, 357.5,150.5 Q357,150, 356.5,150 Q356,150, 355.5,150 Q355,150, 354.5,149.5 Q354,149, 353,149 Q352,149, 350.5,149 Q349,149, 347,149.5 Q345,150, 343.5,150.5 Q342,151, 340.5,151 Q339,151, 337.5,151.5 Q336,152, 335,152.5 Q334,153, 333,153.5 Q332,154, 331.5,154.5 Q331,155, 330,155.5 Q329,156, 328.5,156.5 Q328,157, 328,157.5 Q328,158, 327.5,158.5 Q327,159, 326.5,159 Q326,159, 325.5,159.5 Q325,160, 324.5,163 Q324,166, 322.5,169.5 Q321,173, 321,174 Q321,175, 320.5,176 Q320,177, 320,178 Q320,179, 319.5,180 Q319,181, 319,182 Q319,183, 318.5,183.5 Q318,184, 318,184.5 Q318,185, 318,186 Q318,187, 318,187.5 Q318,188, 318.5,188 Q319,188, 319,188.5 Q319,189, 319.5,189.5 Q320,190, 320.5,190.5 Q321,191, 321.5,191.5 Q322,192, 323,193 Q324,194, 325,194.5 Q326,195, 327,195.5 Q328,196, 329,196.5 Q330,197, 331.5,197.5 Q333,198, 334.5,198.5 Q336,199, 337.5,199.5 Q339,200, 340,200 Q341,200, 341.5,200.5 Q342,201, 342.5,201 Q343,201, 343.5,201 Q344,201, 344.5,201 Q345,201, 345.5,201 Q346,201, 346.5,201 Q347,201, 348,201 Q349,201, 350,201 Q351,201, 352,201 Q353,201, 354,201 Q355,201, 355.5,201 Q356,201, 356.5,201 Q357,201, 357,201" />
<path d="M418,86 Q418,86, 418,86.5 Q418,87, 417.5,87.5 Q417,88, 417,88.5 Q417,89, 417,89 Q417,89, 417,90 Q417,91, 416.5,91.5 Q416,92, 416,93 Q416,94, 416,95 Q416,96, 415.5,97 Q415,98, 415,99.5 Q415,101, 414.5,102.5 Q414,104, 414,105.5 Q414,107, 413.5,108.5 Q413,110, 412.5,111.5 Q412,113, 411.5,115 Q411,117, 410.5,119 Q410,121, 409,122.5 Q408,124, 408,126.5 Q408,129, 407.5,131 Q407,133, 406.5,135 Q406,137, 406,139 Q406,141, 405.5,143 Q405,145, 405,146.5 Q405,148, 404.5,150 Q404,152, 403.5,154.5 Q403,157, 402.5,159.5 Q402,162, 401.5,163.5 Q401,165, 401,167 Q401,169, 400.5,170.5 Q400,172, 400,173.5 Q400,175, 399.5,176 Q399,177, 399,178 Q399,179, 399,180 Q399,181, 398.5,181.5 Q398,182, 398,183 Q398,184, 398,185 Q398,186, 397.5,187 Q397,188, 397,189 Q397,190, 397,190.5 Q397,191, 397,192 Q397,193, 397,194 Q397,195, 397,196 Q397,197, 397,197.5 Q397,198, 397,198.5 Q397,199, 396.5,199.5 Q396,200, 396,200 Q396,200, 396,200 Q396,200, 396,200.5 Q396,201, 396,201 Q396,201, 396,201" />
<path d="M484,159 Q484,159, 483.5,159 Q483,159, 482.5,159 Q482,159, 481.5,158.5 Q481,158, 480,158 Q479,158, 478.5,157.5 Q478,157, 476.5,156.5 Q475,156, 473.5,156 Q472,156, 470.5,156 Q469,156, 467,155.5 Q465,155, 463,155 Q461,155, 460,155 Q459,155, 457.5,155 Q456,155, 455,155.5 Q454,156, 453.5,156 Q453,156, 452,156.5 Q451,157, 450,157.5 Q449,158, 448.5,158.5 Q448,159, 447,159.5 Q446,160, 445.5,160.5 Q445,161, 444.5,161.5 Q444,162, 443.5,162.5 Q443,163, 442.5,163.5 Q442,164, 441.5,164.5 Q441,165, 440.5,165.5 Q440,166, 440,166.5 Q440,167, 439.5,168 Q439,169, 439,169.5 Q439,170, 438.5,171 Q438,172, 438,173 Q438,174, 437.5,175 Q437,176, 437,176.5 Q437,177, 437,178 Q437,179, 437,179.5 Q437,180, 437,181 Q437,182, 437.5,182.5 Q438,183, 438.5,184 Q439,185, 439.5,186 Q440,187, 440.5,187.5 Q441,188, 441.5,188.5 Q442,189, 443,190 Q444,191, 444.5,191.5 Q445,192, 445.5,192.5 Q446,193, 446.5,193.5 Q447,194, 447.5,194.5 Q448,195, 449,195 Q450,195, 451,195.5 Q452,196, 453.5,196.5 Q455,197, 456,197 Q457,197, 458.5,197 Q460,197, 461.5,197 Q463,197, 464,197 Q465,197, 466,197 Q467,197, 467.5,197 Q468,197, 468.5,196.5 Q469,196, 469.5,196 Q470,196, 470,196 Q470,196, 470,195.5 Q470,195, 470.5,195 Q471,195, 471,195 Q471,195, 471,195 Q471,195, 471.5,194.5 Q472,194, 472,194 Q472,194, 472.5,194 Q473,194, 473,194 Q473,194, 473,194 Q473,194, 473.5,193.5 Q474,193, 474,193 Q474,193, 474,193" />
<path d="M552,154 Q552,154, 552,154 Q552,154, 552,154 Q552,154, 551.5,154 Q551,154, 551,154.5 Q551,155, 550.5,155 Q550,155, 549.5,155 Q549,155, 548,155.5 Q547,156, 546.5,156 Q546,156, 545,156.5 Q544,157, 543,157.5 Q542,158, 540.5,159 Q539,160, 537.5,160.5 Q536,161, 534.5,162 Q533,163, 532,163.5 Q531,164, 529.5,164.5 Q528,165, 527.5,165.5 Q527,166, 526,167 Q525,168, 524.5,168.5 Q524,169, 523.5,169.5 Q523,170, 522.5,170.5 Q522,171, 521,172 Q520,173, 519.5,173.5 Q519,174, 518.5,174.5 Q518,175, 517.5,175.5 Q517,176, 516.5,177 Q516,178, 515.5,178.5 Q515,179, 514.5,179.5 Q514,180, 513.5,181 Q513,182, 513,182.5 Q513,183, 512.5,183.5 Q512,184, 512,185 Q512,186, 512,186.5 Q512,187, 512,188 Q512,189, 512,189 Q512,189, 512,190 Q512,191, 512,191.5 Q512,192, 512,192.5 Q512,193, 512.5,193.5 Q513,194, 513.5,194.5 Q514,195, 514.5,195 Q515,195, 515.5,195.5 Q516,196, 517,196.5 Q518,197, 519,198 Q520,199, 521,199 Q522,199, 523.5,199 Q525,199, 526.5,199 Q528,199, 529.5,199 Q531,199, 532.5,198.5 Q534,198, 535,198 Q536,198, 537.5,197.5 Q539,197, 540.5,196.5 Q542,196, 544.5,195.5 Q547,195, 549,194.5 Q551,194, 553.5,193 Q556,192, 557.5,191.5 Q559,191, 560,190.5 Q561,190, 562,189.5 Q563,189, 563,188.5 Q563,188, 563,187.5 Q563,187, 563.5,186.5 Q564,186, 564,185.5 Q564,185, 564,184.5 Q564,184, 564,183 Q564,182, 564,181.5 Q564,181, 563.5,180.5 Q563,180, 563,179.5 Q563,179, 562.5,178 Q562,177, 562,176.5 Q562,176, 561.5,175.5 Q561,175, 560.5,174.5 Q560,174, 559,173.5 Q558,173, 558,173 Q558,173, 557,172.5 Q556,172, 555.5,172 Q555,172, 554,171.5 Q553,171, 552,171 Q551,171, 550,171 Q549,171, 548.5,171 Q548,171, 547.5,171 Q547,171, 546.5,171 Q546,171, 545.5,171 Q545,171, 545,170.5 Q545,170, 545,170 Q545,170, 545,170 Q545,170, 545,170 Q545,170, 545,169.5 Q545,169, 545,169 Q545,169, 545,169 Q545,169, 545,168.5 Q545,168, 545,168" />
<path d="M591,165 Q591,167, 591,167.5 Q591,168, 591.5,168.5 Q592,169, 592,170.5 Q592,172, 592,173 Q592,174, 592,175 Q592,176, 592.5,177.5 Q593,179, 593,180.5 Q593,182, 593,184 Q593,186, 593,187.5 Q593,189, 593,190.5 Q593,192, 593,193.5 Q593,195, 593,196 Q593,197, 593,198.5 Q593,200, 592.5,201 Q592,202, 592,203 Q592,204, 592,205 Q592,206, 591.5,207 Q591,208, 591,208.5 Q591,209, 591,209.5 Q591,210, 590.5,210 Q590,210, 590,210 Q590,210, 590,210 Q590,210, 590,210.5 Q590,211, 589.5,211 Q589,211, 589,211 Q589,211, 589,211 Q589,211, 589,211 Q589,211, 588.5,211.5 Q588,212, 588,211.5 Q588,211, 588,210.5 Q588,210, 588,209 Q588,208, 588,206.5 Q588,205, 588,204 Q588,203, 588.5,202.5 Q589,202, 589.5,201.5 Q590,201, 590,200 Q590,199, 590.5,198.5 Q591,198, 591.5,197 Q592,196, 592.5,195.5 Q593,195, 593.5,194 Q594,193, 595,192 Q596,191, 596.5,190 Q597,189, 598,187.5 Q599,186, 599.5,185 Q600,184, 600.5,183 Q601,182, 601.5,181.5 Q602,181, 602.5,180.5 Q603,180, 604,179 Q605,178, 605.5,177.5 Q606,177, 606.5,176.5 Q607,176, 608,176 Q609,176, 609.5,175.5 Q610,175, 610.5,175 Q611,175, 612,174.5 Q613,174, 613.5,174 Q614,174, 614.5,174 Q615,174, 615.5,174 Q616,174, 616.5,174 Q617,174, 617.5,174 Q618,174, 618.5,174.5 Q619,175, 619,175 Q619,175, 619.5,175.5 Q620,176, 620.5,176 Q621,176, 621,176.5 Q621,177, 621,177.5 Q621,178, 621.5,178.5 Q622,179, 622,179.5 Q622,180, 622,180.5 Q622,181, 622.5,181.5 Q623,182, 623,183 Q623,184, 623,185 Q623,186, 623.5,187.5 Q624,189, 624,189.5 Q624,190, 624,191 Q624,192, 624,192.5 Q624,193, 624,194 Q624,195, 624,196 Q624,197, 624,198 Q624,199, 624,200 Q624,201, 624,201.5 Q624,202, 624,203 Q624,204, 623.5,204.5 Q623,205, 623,206 Q623,207, 622.5,207 Q622,207, 622,207.5 Q622,208, 622,208.5 Q622,209, 622,209 Q622,209, 622,209 Q622,209, 621.5,208 Q621,207, 621,206 Q621,205, 620.5,204 Q620,203, 620,201.5 Q620,200, 620.5,198.5 Q621,197, 621,196 Q621,195, 621.5,194 Q622,193, 622,192 Q622,191, 622.5,190 Q623,189, 623.5,188.5 Q624,188, 624.5,187 Q625,186, 626,185.5 Q627,185, 628,184 Q629,183, 630.5,182 Q632,181, 633.5,180 Q635,179, 636.5,178 Q638,177, 639.5,176.5 Q641,176, 643,175 Q645,174, 646.5,173 Q648,172, 649,172 Q650,172, 650.5,171.5 Q651,171, 651.5,171 Q652,171, 652.5,171 Q653,171, 653,171 Q653,171, 653,171 Q653,171, 653.5,171 Q654,171, 654,171 Q654,171, 654.5,171.5 Q655,172, 655.5,172.5 Q656,173, 656.5,173.5 Q657,174, 657.5,174.5 Q658,175, 658.5,175.5 Q659,176, 659.5,177 Q660,178, 660.5,178.5 Q661,179, 661.5,180 Q662,181, 662,182 Q662,183, 662.5,184 Q663,185, 663.5,186 Q664,187, 664,188 Q664,189, 664,190 Q664,191, 664.5,192 Q665,193, 665,194 Q665,195, 665,195.5 Q665,196, 665.5,197.5 Q666,199, 666,200 Q666,201, 666,202 Q666,203, 666,204 Q666,205, 666,205.5 Q666,206, 666,207 Q666,208, 666,208.5 Q666,209, 666,209.5 Q666,210, 666,210 Q666,210, 666,210 Q666,210, 666,210 Q666,210, 666,210 Q666,210, 666,210 Q666,210, 666,209.5 Q666,209, 666,209 Q666,209, 667,208" />
<path d="M731,179 Q732,179, 733,179 Q734,179, 735.5,179 Q737,179, 739,179 Q741,179, 742.5,179 Q744,179, 746,179 Q748,179, 750,179 Q752,179, 754,179 Q756,179, 758,178.5 Q760,178, 762,177.5 Q764,177, 765.5,176.5 Q767,176, 768,175.5 Q769,175, 769.5,174.5 Q770,174, 770.5,173.5 Q771,173, 771.5,172.5 Q772,172, 772.5,171.5 Q773,171, 773.5,170 Q774,169, 774.5,168.5 Q775,168, 775,167.5 Q775,167, 775.5,166.5 Q776,166, 776,165 Q776,164, 776,163.5 Q776,163, 776,162.5 Q776,162, 775.5,161.5 Q775,161, 775,160.5 Q775,160, 774.5,159.5 Q774,159, 773.5,158.5 Q773,158, 772.5,157.5 Q772,157, 771.5,156.5 Q771,156, 770.5,155.5 Q770,155, 769,154.5 Q768,154, 767.5,154 Q767,154, 766,153.5 Q765,153, 763.5,153 Q762,153, 760.5,153 Q759,153, 757,153 Q755,153, 753.5,153 Q752,153, 750,153.5 Q748,154, 746,154.5 Q744,155, 742.5,155.5 Q741,156, 739.5,156.5 Q738,157, 737,157 Q736,157, 735,157.5 Q734,158, 733,158.5 Q732,159, 731,160 Q730,161, 729,161.5 Q728,162, 727.5,162.5 Q727,163, 726.5,164 Q726,165, 725.5,166 Q725,167, 724.5,167.5 Q724,168, 723.5,169 Q723,170, 722.5,171 Q722,172, 721.5,172.5 Q721,173, 720.5,174 Q720,175, 719.5,176 Q719,177, 719,177.5 Q719,178, 718.5,179 Q718,180, 718,181.5 Q718,183, 718,184 Q718,185, 718,185.5 Q718,186, 718,187 Q718,188, 718,188.5 Q718,189, 718,190 Q718,191, 718.5,191.5 Q719,192, 719,192.5 Q719,193, 719.5,194 Q720,195, 720.5,195 Q721,195, 721.5,195.5 Q722,196, 722,196.5 Q722,197, 722.5,197.5 Q723,198, 723.5,198.5 Q724,199, 724.5,199.5 Q725,200, 726,200.5 Q727,201, 727.5,201.5 Q728,202, 729.5,202.5 Q731,203, 732,203 Q733,203, 734.5,203.5 Q736,204, 737,204.5 Q738,205, 739,205 Q740,205, 740.5,205 Q741,205, 742,205.5 Q743,206, 743.5,206 Q744,206, 744.5,206 Q745,206, 746,205.5 Q747,205, 749,205 Q751,205, 752.5,204.5 Q754,204, 755.5,203.5 Q757,203, 758,203 Q759,203, 760,202.5 Q761,202, 761,202 Q761,202, 761.5,202 Q762,202, 762,202" />
<path d="M241,291 Q242,291, 242.5,291 Q243,291, 245,291 Q247,291, 249.5,291 Q252,291, 254.5,290.5 Q257,290, 260.5,289.5 Q264,289, 268,288.5 Q272,288, 276.5,287.5 Q281,287, 284.5,286 Q288,285, 291.5,284.5 Q295,284, 297,284 Q299,284, 301,283.5 Q303,283, 304,283 Q305,283, 305.5,283 Q306,283, 306,283 Q306,283, 306.5,283 Q307,283, 307,283 Q307,283, 307,283 Q307,283, 307,283 Q307,283, 307.5,283.5 Q308,284, 308,284 Q308,284, 308,284 Q308,284, 308.5,284 Q309,284, 309,284 Q309,284, 309.5,284 Q310,284, 310,284 Q310,284, 310.5,284.5 Q311,285, 311.5,285 Q312,285, 312,285 Q312,285, 312.5,285 Q313,285, 313.5,285 Q314,285, 314.5,285.5 Q315,286, 315,286 Q315,286, 315.5,286 Q316,286, 316,286 Q316,286, 316,286 Q316,286, 317,286" />
<path d="M284,288 Q284,288, 284,288.5 Q284,289, 284,289 Q284,289, 284,289 Q284,289, 284,289.5 Q284,290, 284,290 Q284,290, 283.5,290.5 Q283,291, 283,291.5 Q283,292, 283,292.5 Q283,293, 283,293.5 Q283,294, 283,294 Q283,294, 283,294.5 Q283,295, 283,295.5 Q283,296, 283,296 Q283,296, 283,296.5 Q283,297, 283,297.5 Q283,298, 283,298 Q283,298, 283,298 Q283,298, 283,298 Q283,298, 283,298.5 Q283,299, 283,299 Q283,299, 283,299 Q283,299, 283,299 Q283,299, 283,299.5 Q283,300, 283,300 Q283,300, 283,300 Q283,300, 283,300 Q283,300, 283,300.5 Q283,301, 283,301 Q283,301, 283,301.5 Q283,302, 283,302 Q283,302, 283,302.5 Q283,303, 283,303.5 Q283,304, 283,304.5 Q283,305, 283,305 Q283,305, 283,305.5 Q283,306, 283,306.5 Q283,307, 283,307.5 Q283,308, 283,308.5 Q283,309, 283,310 Q283,311, 283,312 Q283,313, 283,314 Q283,315, 283,316 Q283,317, 283,318.5 Q283,320, 283,321.5 Q283,323, 283,325 Q283,327, 282.5,328.5 Q282,330, 282,332 Q282,334, 282,335.5 Q282,337, 282,338.5 Q282,340, 282,341 Q282,342, 282,343 Q282,344, 282,345 Q282,346, 282,347 Q282,348, 282,349 Q282,350, 282,351 Q282,352, 282,353 Q282,354, 282,354.5 Q282,355, 281.5,355.5 Q281,356, 281,357 Q281,358, 281,358.5 Q281,359, 281,359.5 Q281,360, 281,360.5 Q281,361, 281,362 Q281,363, 281,363.5 Q281,364, 281,364.5 Q281,365, 281,366 Q281,367, 281,367.5 Q281,368, 281,368.5 Q281,369, 281,370 Q281,371, 281,371.5 Q281,372, 281,372.5 Q281,373, 281,373.5 Q281,374, 281,374 Q281,374, 281,374.5 Q281,375, 281,375 Q281,375, 281,375 Q281,375, 281,375.5 Q281,376, 281.5,376 Q282,376, 282,376 Q282,376, 282,376 Q282,376, 282,376.5 Q282,377, 282,377 Q282,377, 282,377 Q282,377, 282,377" />
<path d="M243,386 Q243,386, 243.5,386 Q244,386, 244.5,386 Q245,386, 246,386 Q247,386, 248,386 Q249,386, 250.5,386 Q252,386, 253.5,386 Q255,386, 257,385.5 Q259,385, 261,384.5 Q263,384, 265,384 Q267,384, 269,383.5 Q271,383, 272,383 Q273,383, 274,382.5 Q275,382, 276,382 Q277,382, 278,382 Q279,382, 280,381.5 Q281,381, 282,381 Q283,381, 284,381 Q285,381, 286,381 Q287,381, 288,381 Q289,381, 289.5,381 Q290,381, 290.5,381 Q291,381, 292,381 Q293,381, 294,381 Q295,381, 296,381 Q297,381, 297.5,381 Q298,381, 299,381.5 Q300,382, 301,382 Q302,382, 303,382 Q304,382, 305,382 Q306,382, 307,382 Q308,382, 308,382 Q308,382, 308.5,382 Q309,382, 309.5,382 Q310,382, 310,382 Q310,382, 310,382 Q310,382, 310,381.5 Q310,381, 310,381 Q310,381, 310,381 Q310,381, 310.5,381 Q311,381, 311,381 Q311,381, 311,381" />
<path d="M368,283 Q367,283, 367,283 Q367,283, 367,283 Q367,283, 367,283 Q367,283, 366.5,283 Q366,283, 366,283 Q366,283, 365.5,283.5 Q365,284, 364.5,284 Q364,284, 363,284.5 Q362,285, 361.5,285.5 Q361,286, 361,286 Q361,286, 360.5,286.5 Q360,287, 359.5,287.5 Q359,288, 358.5,288.5 Q358,289, 358,289.5 Q358,290, 357.5,290.5 Q357,291, 357,291.5 Q357,292, 357,292.5 Q357,293, 356.5,293.5 Q356,294, 356,294 Q356,294, 356,294.5 Q356,295, 356,295.5 Q356,296, 356,296.5 Q356,297, 356,297.5 Q356,298, 356,298.5 Q356,299, 356,299 Q356,299, 356,299.5 Q356,300, 356.5,300.5 Q357,301, 357,301.5 Q357,302, 357,302.5 Q357,303, 357.5,303.5 Q358,304, 358.5,304 Q359,304, 359,304.5 Q359,305, 359.5,305 Q360,305, 360.5,305.5 Q361,306, 361.5,306 Q362,306, 362.5,306 Q363,306, 363.5,306 Q364,306, 364,306 Q364,306, 364.5,306 Q365,306, 365,306 Q365,306, 365.5,306 Q366,306, 366.5,305.5 Q367,305, 367.5,305 Q368,305, 368.5,304.5 Q369,304, 369.5,303.5 Q370,303, 370,302.5 Q370,302, 370.5,301.5 Q371,301, 371,300.5 Q371,300, 371.5,300 Q372,300, 372,299.5 Q372,299, 372,298.5 Q372,298, 372,297.5 Q372,297, 372.5,297 Q373,297, 373,296.5 Q373,296, 373,296 Q373,296, 373,295.5 Q373,295, 373,294.5 Q373,294, 373,294 Q373,294, 372.5,294 Q372,294, 372,293.5 Q372,293, 372,292.5 Q372,292, 372,292 Q372,292, 371.5,291.5 Q371,291, 371,291 Q371,291, 371,291 Q371,291, 370.5,290.5 Q370,290, 370,290 Q370,290, 369.5,290 Q369,290, 369,290 Q369,290, 368.5,290 Q368,290, 367,290 Q366,290, 365.5,290 Q365,290, 364.5,290 Q364,290, 363.5,290.5 Q363,291, 363,291 Q363,291, 363,291 Q363,291, 363,291 Q363,291, 363,291 Q363,291, 363,291" />
<path d="M369,332 Q369,333, 369.5,333 Q370,333, 370,333.5 Q370,334, 370,334.5 Q370,335, 370.5,335.5 Q371,336, 371,336.5 Q371,337, 371,337.5 Q371,338, 371.5,338.5 Q372,339, 372,339.5 Q372,340, 372,340.5 Q372,341, 372.5,342 Q373,343, 373,344 Q373,345, 373.5,346.5 Q374,348, 374,349 Q374,350, 374,351 Q374,352, 374,353 Q374,354, 374,354.5 Q374,355, 374,356 Q374,357, 374,357.5 Q374,358, 374,358.5 Q374,359, 374.5,359.5 Q375,360, 375,360.5 Q375,361, 375,361.5 Q375,362, 375,362.5 Q375,363, 375,363 Q375,363, 375,363.5 Q375,364, 375,364.5 Q375,365, 375,365.5 Q375,366, 375,366.5 Q375,367, 375,367 Q375,367, 375,367 Q375,367, 375,367 Q375,367, 375,367 Q375,367, 375,366 Q375,365, 375,364.5 Q375,364, 375,363 Q375,362, 375,361 Q375,360, 375.5,359 Q376,358, 376,357.5 Q376,357, 376.5,356.5 Q377,356, 377.5,355.5 Q378,355, 378,354.5 Q378,354, 378.5,353 Q379,352, 379.5,351.5 Q380,351, 380,350.5 Q380,350, 380.5,349 Q381,348, 381.5,347.5 Q382,347, 382.5,346.5 Q383,346, 383.5,345.5 Q384,345, 384,344.5 Q384,344, 384.5,343.5 Q385,343, 385,343 Q385,343, 385,343 Q385,343, 385,342.5 Q385,342, 385.5,342 Q386,342, 386,342 Q386,342, 386,342 Q386,342, 386,341.5 Q386,341, 386.5,341 Q387,341, 387,341 Q387,341, 387,341 Q387,341, 387,341 Q387,341, 387.5,340.5 Q388,340, 388,340 Q388,340, 388.5,340 Q389,340, 389.5,340 Q390,340, 390,339.5 Q390,339, 390.5,339 Q391,339, 391.5,339 Q392,339, 392.5,339 Q393,339, 393,339 Q393,339, 393.5,339 Q394,339, 394,339 Q394,339, 394,339 Q394,339, 394.5,339 Q395,339, 395,339 Q395,339, 395.5,339.5 Q396,340, 396.5,340.5 Q397,341, 397.5,341.5 Q398,342, 398.5,342 Q399,342, 399.5,342.5 Q400,343, 400,343.5 Q400,344, 400.5,344.5 Q401,345, 401,346 Q401,347, 401.5,347.5 Q402,348, 402,348.5 Q402,349, 402,349.5 Q402,350, 402.5,350.5 Q403,351, 403,351.5 Q403,352, 403,352.5 Q403,353, 403,353.5 Q403,354, 403,354.5 Q403,355, 403,356 Q403,357, 402.5,357.5 Q402,358, 402,358.5 Q402,359, 402,360 Q402,361, 402,361.5 Q402,362, 402,362.5 Q402,363, 402,364 Q402,365, 401.5,365.5 Q401,366, 401,366.5 Q401,367, 401,367.5 Q401,368, 401,368 Q401,368, 401,368 Q401,368, 400.5,368.5 Q400,369, 400,369 Q400,369, 400,369 Q400,369, 400,368.5 Q400,368, 400,367.5 Q400,367, 400.5,366.5 Q401,366, 401,365 Q401,364, 401,363 Q401,362, 401.5,361 Q402,360, 402.5,359 Q403,358, 403.5,357.5 Q404,357, 404,356 Q404,355, 404.5,354.5 Q405,354, 405.5,353.5 Q406,353, 406.5,352 Q407,351, 408,350 Q409,349, 409.5,348.5 Q410,348, 411,347.5 Q412,347, 413.5,345.5 Q415,344, 416.5,343 Q418,342, 419.5,341.5 Q421,341, 421.5,340.5 Q422,340, 422.5,339.5 Q423,339, 423.5,339 Q424,339, 424.5,339 Q425,339, 425,339 Q425,339, 425,339.5 Q425,340, 425.5,340 Q426,340, 426.5,340.5 Q427,341, 427,342 Q427,343, 427.5,343.5 Q428,344, 428,344.5 Q428,345, 428.5,345.5 Q429,346, 429,347 Q429,348, 429.5,349 Q430,350, 430,351 Q430,352, 430.5,352.5 Q431,353, 431,354 Q431,355, 431,356.5 Q431,358, 431,358.5 Q431,359, 431.5,360 Q432,361, 432,362 Q432,363, 432,364 Q432,365, 432.5,365.5 Q433,366, 433,366.5 Q433,367, 433,368 Q433,369, 433,369.5 Q433,370, 433,370.5 Q433,371, 433,371.5 Q433,372, 433,372.5 Q433,373, 433,373.5 Q433,374, 433,374 Q433,374, 433,374 Q433,374, 433,374.5 Q433,375, 433,375 Q433,375, 433,375 Q433,375, 433,375 Q433,375, 433,375.5 Q433,376, 433,375.5 Q433,375, 433,375" />
<path d="M594,268 Q594,269, 594,269.5 Q594,270, 594,270.5 Q594,271, 594,272 Q594,273, 594,274 Q594,275, 594,276 Q594,277, 594,278.5 Q594,280, 593.5,281.5 Q593,283, 592.5,284.5 Q592,286, 591.5,288 Q591,290, 590.5,292 Q590,294, 589,295.5 Q588,297, 587.5,299 Q587,301, 586.5,303 Q586,305, 585,307 Q584,309, 583.5,310.5 Q583,312, 582.5,313.5 Q582,315, 581.5,316.5 Q581,318, 580.5,319 Q580,320, 579,321.5 Q578,323, 577.5,324.5 Q577,326, 576,327 Q575,328, 574,330 Q573,332, 572.5,333 Q572,334, 571,335 Q570,336, 569.5,337.5 Q569,339, 568,340 Q567,341, 566.5,342 Q566,343, 565.5,343.5 Q565,344, 564.5,345 Q564,346, 563.5,346.5 Q563,347, 562.5,348 Q562,349, 561.5,349 Q561,349, 560.5,350 Q560,351, 559.5,351.5 Q559,352, 558.5,352.5 Q558,353, 558,354 Q558,355, 557.5,355.5 Q557,356, 556.5,356.5 Q556,357, 555.5,357.5 Q555,358, 555,358.5 Q555,359, 554.5,359 Q554,359, 553.5,359.5 Q553,360, 553,360.5 Q553,361, 552.5,361.5 Q552,362, 552,362 Q552,362, 552,362 Q552,362, 552,362.5 Q552,363, 551.5,363 Q551,363, 551,363 Q551,363, 551,363 Q551,363, 551,363.5 Q551,364, 550.5,364 Q550,364, 550,364 Q550,364, 549.5,364 Q549,364, 549,364.5 Q549,365, 549,365 Q549,365, 548.5,365 Q548,365, 548,365 Q548,365, 548,365 Q548,365, 548,365 Q548,365, 547.5,365 Q547,365, 547,365.5 Q547,366, 547,366 Q547,366, 546.5,366 Q546,366, 546,366 Q546,366, 546,366.5 Q546,367, 546,367" />
<path d="M649,283 Q649,284, 649,284.5 Q649,285, 648.5,285.5 Q648,286, 648,286 Q648,286, 647.5,286.5 Q647,287, 646.5,287.5 Q646,288, 645.5,288.5 Q645,289, 644.5,289.5 Q644,290, 644,290.5 Q644,291, 643,292 Q642,293, 641.5,293.5 Q641,294, 640.5,294.5 Q640,295, 639.5,295.5 Q639,296, 638,297 Q637,298, 636.5,298.5 Q636,299, 635,299.5 Q634,300, 633,300.5 Q632,301, 631.5,301 Q631,301, 630,301.5 Q629,302, 628,302.5 Q627,303, 626,303.5 Q625,304, 624,304.5 Q623,305, 622,305.5 Q621,306, 620,306.5 Q619,307, 617.5,307.5 Q616,308, 615,308.5 Q614,309, 613,309.5 Q612,310, 611.5,310.5 Q611,311, 610,311 Q609,311, 608.5,311.5 Q608,312, 607.5,312.5 Q607,313, 606,313 Q605,313, 604.5,313 Q604,313, 603.5,313.5 Q603,314, 602.5,314.5 Q602,315, 601,315 Q600,315, 599.5,315.5 Q599,316, 598.5,316 Q598,316, 597.5,316.5 Q597,317, 596.5,317 Q596,317, 596,317 Q596,317, 595.5,317.5 Q595,318, 594.5,318 Q594,318, 594,318 Q594,318, 594,318 Q594,318, 593.5,318 Q593,318, 593,318 Q593,318, 592.5,318.5 Q592,319, 592,319 Q592,319, 592,319 Q592,319, 592,319 Q592,319, 591.5,319 Q591,319, 591,319 Q591,319, 590.5,319.5 Q590,320, 589.5,320 Q589,320, 588.5,320 Q588,320, 588,320 Q588,320, 588,320 Q588,320, 588,320.5 Q588,321, 587.5,321 Q587,321, 587,321 Q587,321, 587,321 Q587,321, 586.5,321 Q586,321, 586,321 Q586,321, 586,321 Q586,321, 586.5,321.5 Q587,322, 587.5,323 Q588,324, 588.5,324.5 Q589,325, 590,325.5 Q591,326, 592,327 Q593,328, 594.5,329 Q596,330, 597,331.5 Q598,333, 599,333.5 Q600,334, 601,335 Q602,336, 603,337 Q604,338, 604.5,338.5 Q605,339, 605.5,340 Q606,341, 606.5,342 Q607,343, 608,344.5 Q609,346, 610,347.5 Q611,349, 611.5,350.5 Q612,352, 613,353.5 Q614,355, 615.5,356.5 Q617,358, 618.5,360 Q620,362, 621,363.5 Q622,365, 623.5,366.5 Q625,368, 625.5,369 Q626,370, 627,370.5 Q628,371, 628.5,372 Q629,373, 629,373.5 Q629,374, 629.5,374 Q630,374, 630,374.5 Q630,375, 630,375 Q630,375, 630,375 Q630,375, 630,375 Q630,375, 630.5,375.5 Q631,376, 631,376 Q631,376, 631,376 Q631,376, 631,376.5 Q631,377, 631.5,377 Q632,377, 632,377 Q632,377, 632,377.5 Q632,378, 632,378 Q632,378, 632,378 Q632,378, 632.5,378 Q633,378, 633,378.5 Q633,379, 633,379 Q633,379, 633,379 Q633,379, 633.5,379 Q634,379, 634,379.5 Q634,380, 634,380 Q634,380, 634,380 Q634,380, 634,380.5 Q634,381, 634.5,381 Q635,381, 635,380.5 Q635,380, 635,380 Q635,380, 635,380 Q635,380, 634,380" />
<path d="M674,340 Q674,340, 674.5,340 Q675,340, 675,340 Q675,340, 675,340.5 Q675,341, 675,341 Q675,341, 675,341 Q675,341, 675,341 Q675,341, 675.5,341 Q676,341, 676.5,341.5 Q677,342, 678,342 Q679,342, 679.5,342 Q680,342, 681.5,342 Q683,342, 684.5,342 Q686,342, 687,342 Q688,342, 689,341.5 Q690,341, 691,341 Q692,341, 693,340.5 Q694,340, 695,340 Q696,340, 697,339.5 Q698,339, 698.5,338.5 Q699,338, 700,338 Q701,338, 701.5,337.5 Q702,337, 702.5,336.5 Q703,336, 703.5,335.5 Q704,335, 704.5,334.5 Q705,334, 705.5,334 Q706,334, 706,333.5 Q706,333, 706,332.5 Q706,332, 706.5,331.5 Q707,331, 707,331 Q707,331, 707,330.5 Q707,330, 707,329.5 Q707,329, 706.5,328.5 Q706,328, 706,327.5 Q706,327, 706,327 Q706,327, 705.5,326.5 Q705,326, 704.5,325.5 Q704,325, 703.5,324.5 Q703,324, 702.5,323.5 Q702,323, 701.5,322.5 Q701,322, 700,322 Q699,322, 698.5,321.5 Q698,321, 697.5,321 Q697,321, 696.5,321 Q696,321, 695,321 Q694,321, 693.5,321 Q693,321, 692.5,321 Q692,321, 691,321.5 Q690,322, 689.5,322.5 Q689,323, 688,323 Q687,323, 686,323.5 Q685,324, 684,324.5 Q683,325, 682.5,325.5 Q682,326, 681,326.5 Q680,327, 679.5,327 Q679,327, 679,327.5 Q679,328, 678.5,328.5 Q678,329, 677.5,329 Q677,329, 676.5,329.5 Q676,330, 676,330.5 Q676,331, 675.5,331.5 Q675,332, 675,332.5 Q675,333, 674.5,333.5 Q674,334, 674,334.5 Q674,335, 674,335.5 Q674,336, 674,336.5 Q674,337, 674,337.5 Q674,338, 674,338.5 Q674,339, 673.5,339.5 Q673,340, 673,340.5 Q673,341, 673,342 Q673,343, 673,343.5 Q673,344, 673,344.5 Q673,345, 673,345.5 Q673,346, 673,346.5 Q673,347, 673,347.5 Q673,348, 673.5,348.5 Q674,349, 674,349.5 Q674,350, 674,351 Q674,352, 674.5,352.5 Q675,353, 675,353.5 Q675,354, 675,354.5 Q675,355, 675.5,355.5 Q676,356, 676.5,356.5 Q677,357, 677,357.5 Q677,358, 677,358 Q677,358, 677.5,358.5 Q678,359, 678.5,359 Q679,359, 679.5,359.5 Q680,360, 680.5,360.5 Q681,361, 681.5,361.5 Q682,362, 682.5,362.5 Q683,363, 684.5,363 Q686,363, 687,363.5 Q688,364, 689,364 Q690,364, 691.5,364 Q693,364, 694.5,364.5 Q696,365, 697,365 Q698,365, 699,365 Q700,365, 700.5,365 Q701,365, 701.5,365 Q702,365, 702.5,365 Q703,365, 703.5,365 Q704,365, 704,365 Q704,365, 704.5,365 Q705,365, 705,365 Q705,365, 705.5,365 Q706,365, 706,365 Q706,365, 706,365 Q706,365, 706,364.5 Q706,364, 706.5,364 Q707,364, 707,364 Q707,364, 707,364" />
<path d="M732,324 Q732,324, 732,324.5 Q732,325, 732.5,325.5 Q733,326, 733,326.5 Q733,327, 733.5,327.5 Q734,328, 734,328.5 Q734,329, 734.5,329.5 Q735,330, 735,330.5 Q735,331, 735.5,332 Q736,333, 736.5,333.5 Q737,334, 737.5,334.5 Q738,335, 738,335.5 Q738,336, 738.5,337 Q739,338, 739,338.5 Q739,339, 739.5,339.5 Q740,340, 740,340.5 Q740,341, 740.5,341.5 Q741,342, 741,343 Q741,344, 741,344.5 Q741,345, 741.5,345.5 Q742,346, 742,346.5 Q742,347, 742,347.5 Q742,348, 742.5,348.5 Q743,349, 743,349.5 Q743,350, 743.5,351 Q744,352, 744.5,352.5 Q745,353, 745,353.5 Q745,354, 745.5,354.5 Q746,355, 746,355.5 Q746,356, 746,356.5 Q746,357, 746.5,357.5 Q747,358, 747,358.5 Q747,359, 747,359 Q747,359, 747.5,359.5 Q748,360, 748,361 Q748,362, 748,362.5 Q748,363, 748,363.5 Q748,364, 748.5,364.5 Q749,365, 749,365 Q749,365, 749,365.5 Q749,366, 749.5,366 Q750,366, 750,366 Q750,366, 750,366.5 Q750,367, 750,367 Q750,367, 750,367 Q750,367, 750,367 Q750,367, 750,367.5 Q750,368, 750,368 Q750,368, 750,368 Q750,368, 750,367.5 Q750,367, 750.5,366.5 Q751,366, 751,365.5 Q751,365, 751,364.5 Q751,364, 751.5,363.5 Q752,363, 752.5,362 Q753,361, 753.5,360 Q754,359, 754.5,357.5 Q755,356, 755.5,355 Q756,354, 757,352.5 Q758,351, 759,349.5 Q760,348, 761,346.5 Q762,345, 764,343 Q766,341, 768,339 Q770,337, 771,336 Q772,335, 773,333.5 Q774,332, 774.5,331 Q775,330, 776,329 Q777,328, 778,327 Q779,326, 779.5,325.5 Q780,325, 780.5,324.5 Q781,324, 781.5,323.5 Q782,323, 782,322.5 Q782,322, 782,322 Q782,322, 782,322 Q782,322, 782.5,322 Q783,322, 783,321.5 Q783,321, 783,321 Q783,321, 783,321 Q783,321, 783,321 Q783,321, 783,321" />
<path d="M830,291 Q829,291, 829,291.5 Q829,292, 828.5,292 Q828,292, 828,292 Q828,292, 827.5,292.5 Q827,293, 826.5,293.5 Q826,294, 826,294 Q826,294, 825.5,294.5 Q825,295, 825,295.5 Q825,296, 825,296 Q825,296, 825,296.5 Q825,297, 824.5,297.5 Q824,298, 824,298.5 Q824,299, 824,299.5 Q824,300, 823.5,300.5 Q823,301, 823,301 Q823,301, 823,301.5 Q823,302, 823,302.5 Q823,303, 823,303 Q823,303, 823,303.5 Q823,304, 823,304 Q823,304, 823.5,304.5 Q824,305, 824,305.5 Q824,306, 824,306 Q824,306, 824.5,306.5 Q825,307, 825,307 Q825,307, 825,307.5 Q825,308, 825,308.5 Q825,309, 825.5,309 Q826,309, 826,309 Q826,309, 826,309.5 Q826,310, 826.5,310 Q827,310, 827,310 Q827,310, 827,310 Q827,310, 827.5,310.5 Q828,311, 828,311 Q828,311, 828.5,311 Q829,311, 829.5,311 Q830,311, 830.5,311 Q831,311, 831.5,311.5 Q832,312, 833,312 Q834,312, 834,312 Q834,312, 834.5,312 Q835,312, 835.5,311.5 Q836,311, 836.5,311 Q837,311, 837.5,311 Q838,311, 838,311 Q838,311, 838.5,310.5 Q839,310, 839.5,310 Q840,310, 840.5,310 Q841,310, 841.5,309.5 Q842,309, 842.5,309 Q843,309, 843,308.5 Q843,308, 843.5,307.5 Q844,307, 844,307 Q844,307, 844,306.5 Q844,306, 844.5,306 Q845,306, 845,305.5 Q845,305, 845,304.5 Q845,304, 845,304 Q845,304, 845,303.5 Q845,303, 845,302.5 Q845,302, 845,301.5 Q845,301, 845,301 Q845,301, 845,300.5 Q845,300, 845,299.5 Q845,299, 845,298.5 Q845,298, 844.5,297.5 Q844,297, 844,297 Q844,297, 844,296.5 Q844,296, 843.5,295.5 Q843,295, 843,295 Q843,295, 843,294.5 Q843,294, 843,294 Q843,294, 842.5,294 Q842,294, 842,293.5 Q842,293, 841.5,293 Q841,293, 841,293 Q841,293, 840.5,293 Q840,293, 839.5,292.5 Q839,292, 838.5,292 Q838,292, 838,292 Q838,292, 837.5,292 Q837,292, 836.5,292 Q836,292, 835.5,292 Q835,292, 834.5,292 Q834,292, 834,292 Q834,292, 833.5,292 Q833,292, 833,292 Q833,292, 833,292 Q833,292, 832,292" />
<path d="M831,326 Q831,326, 831,326.5 Q831,327, 831,327 Q831,327, 831,327.5 Q831,328, 831,328.5 Q831,329, 831,329.5 Q831,330, 831,330 Q831,330, 831,330.5 Q831,331, 831,331.5 Q831,332, 831,332.5 Q831,333, 831,334 Q831,335, 831,335 Q831,335, 831,335.5 Q831,336, 831,336.5 Q831,337, 831,337.5 Q831,338, 831,338 Q831,338, 831,338 Q831,338, 831,338.5 Q831,339, 831,339 Q831,339, 831,339 Q831,339, 831,339.5 Q831,340, 831,340.5 Q831,341, 831,341 Q831,341, 831,341.5 Q831,342, 831.5,342.5 Q832,343, 832,343.5 Q832,344, 832,344.5 Q832,345, 832,345.5 Q832,346, 832,346.5 Q832,347, 832,347.5 Q832,348, 832,348 Q832,348, 832,348.5 Q832,349, 832,349.5 Q832,350, 832,350.5 Q832,351, 832,351 Q832,351, 832,351.5 Q832,352, 832,352 Q832,352, 832,352.5 Q832,353, 832,353.5 Q832,354, 832,354.5 Q832,355, 832,355.5 Q832,356, 832,356 Q832,356, 832,356.5 Q832,357, 832.5,357.5 Q833,358, 833,358.5 Q833,359, 833,359.5 Q833,360, 833,360.5 Q833,361, 833,361.5 Q833,362, 833,362 Q833,362, 833,362.5 Q833,363, 833,363.5 Q833,364, 833,364.5 Q833,365, 833,365.5 Q833,366, 833,366 Q833,366, 833,366 Q833,366, 833,366 Q833,366, 833,366 Q833,366, 833,365.5 Q833,365, 833,364.5 Q833,364, 833,363.5 Q833,363, 833,362 Q833,361, 833,360.5 Q833,360, 832.5,359.5 Q832,359, 832,358 Q832,357, 832,356.5 Q832,356, 832,355.5 Q832,355, 832,354 Q832,353, 832,352.5 Q832,352, 832,351.5 Q832,351, 832,351 Q832,351, 832,350.5 Q832,350, 832,350 Q832,350, 832.5,350 Q833,350, 833,350 Q833,350, 833,350 Q833,350, 833,349.5 Q833,349, 833,349 Q833,349, 833,349 Q833,349, 833,349 Q833,349, 833,348.5 Q833,348, 833,348 Q833,348, 833,348 Q833,348, 833,348 Q833,348, 833,347.5 Q833,347, 833,347 Q833,347, 833,347 Q833,347, 833,347 Q833,347, 833,347 Q833,347, 833,346.5 Q833,346, 833,346 Q833,346, 833,346 Q833,346, 833,346 Q833,346, 833.5,345.5 Q834,345, 834,345 Q834,345, 834,345 Q834,345, 834,345 Q834,345, 834,344.5 Q834,344, 834,344 Q834,344, 834,344 Q834,344, 834,344 Q834,344, 834,343.5 Q834,343, 834,343 Q834,343, 834,343 Q834,343, 834,343 Q834,343, 834,342.5 Q834,342, 834,342 Q834,342, 834,341.5 Q834,341, 834,340.5 Q834,340, 834,340 Q834,340, 834,339.5 Q834,339, 834,338.5 Q834,338, 834,337.5 Q834,337, 834,336.5 Q834,336, 834,336 Q834,336, 834,335.5 Q834,335, 834,335 Q834,335, 834,335 Q834,335, 834,335 Q834,335, 834,334.5 Q834,334, 834,334 Q834,334, 834,334 Q834,334, 834,334" />
<path d="M872,316 Q872,318, 872,318.5 Q872,319, 872,319 Q872,319, 872.5,320 Q873,321, 873,321.5 Q873,322, 873,322.5 Q873,323, 873.5,324.5 Q874,326, 874,327 Q874,328, 874,329.5 Q874,331, 874.5,332.5 Q875,334, 875,335.5 Q875,337, 875,339 Q875,341, 875,342.5 Q875,344, 875,345.5 Q875,347, 875,348.5 Q875,350, 875,351.5 Q875,353, 875.5,354 Q876,355, 876,356 Q876,357, 876,358 Q876,359, 876,359.5 Q876,360, 876.5,361 Q877,362, 877,363 Q877,364, 877,365 Q877,366, 877,366.5 Q877,367, 877,367.5 Q877,368, 877.5,368.5 Q878,369, 878,369.5 Q878,370, 878,370.5 Q878,371, 878,371.5 Q878,372, 878,372 Q878,372, 878,372.5 Q878,373, 878,373 Q878,373, 878,373 Q878,373, 878,372.5 Q878,372, 878,371.5 Q878,371, 878,370 Q878,369, 878,368.5 Q878,368, 878,367.5 Q878,367, 878,365.5 Q878,364, 878,363 Q878,362, 878,361.5 Q878,361, 878,360 Q878,359, 878.5,357.5 Q879,356, 879,355 Q879,354, 879,352.5 Q879,351, 879.5,350 Q880,349, 880,348 Q880,347, 880,346 Q880,345, 880.5,344 Q881,343, 881,342 Q881,341, 881.5,340 Q882,339, 882,338 Q882,337, 882,336.5 Q882,336, 882.5,335 Q883,334, 883,333.5 Q883,333, 883,332.5 Q883,332, 883.5,331.5 Q884,331, 884,331 Q884,331, 884,330.5 Q884,330, 884,330 Q884,330, 884.5,330 Q885,330, 885,329.5 Q885,329, 885,329 Q885,329, 885.5,328.5 Q886,328, 886,328 Q886,328, 886.5,328 Q887,328, 887.5,328 Q888,328, 888.5,328 Q889,328, 889,328 Q889,328, 889.5,328 Q890,328, 890.5,328 Q891,328, 892,328 Q893,328, 893.5,328 Q894,328, 894.5,328 Q895,328, 895.5,328 Q896,328, 896.5,328 Q897,328, 898,328 Q899,328, 899.5,328.5 Q900,329, 901,329.5 Q902,330, 902.5,330 Q903,330, 903.5,330.5 Q904,331, 904.5,331.5 Q905,332, 905.5,332 Q906,332, 906,332.5 Q906,333, 906,333.5 Q906,334, 906,334 Q906,334, 906.5,334.5 Q907,335, 907,335.5 Q907,336, 907.5,336.5 Q908,337, 908,338 Q908,339, 908.5,339.5 Q909,340, 909,340.5 Q909,341, 909.5,341.5 Q910,342, 910,343 Q910,344, 910,344.5 Q910,345, 910.5,345.5 Q911,346, 911,346.5 Q911,347, 911,347.5 Q911,348, 911.5,348.5 Q912,349, 912,349.5 Q912,350, 912,350.5 Q912,351, 912,351.5 Q912,352, 912,352 Q912,352, 912,352.5 Q912,353, 912,353.5 Q912,354, 912,354.5 Q912,355, 912.5,355 Q913,355, 913,356 Q913,357, 913,357.5 Q913,358, 913.5,358.5 Q914,359, 914,359.5 Q914,360, 914,361 Q914,362, 914.5,362 Q915,362, 915,362.5 Q915,363, 915,363.5 Q915,364, 915,364 Q915,364, 915.5,364.5 Q916,365, 916,365 Q916,365, 916.5,365.5 Q917,366, 917.5,366.5 Q918,367, 918.5,367.5 Q919,368, 920,368.5 Q921,369, 922,369.5 Q923,370, 924,370 Q925,370, 926,370.5 Q927,371, 928,371 Q929,371, 930,371 Q931,371, 931.5,370.5 Q932,370, 932.5,370 Q933,370, 933.5,369.5 Q934,369, 934.5,368.5 Q935,368, 935.5,367.5 Q936,367, 936.5,366.5 Q937,366, 937.5,366 Q938,366, 938,366 Q938,366, 938,366 Q938,366, 938,365" />
      </g></svg>